<?xml version="1.0" encoding="UTF-8" standalone="no"?>
<!DOCTYPE svg PUBLIC "-//W3C//DTD SVG 1.1//EN"
 "http://www.w3.org/Graphics/SVG/1.1/DTD/svg11.dtd">
<!-- Generated by graphviz version 2.40.1 (20161225.0304)
 -->
<!-- Title: dependencies Pages: 1 -->
<svg width="504pt" height="284pt"
 viewBox="0.00 0.00 504.00 284.00" xmlns="http://www.w3.org/2000/svg" xmlns:xlink="http://www.w3.org/1999/xlink">
<g id="graph0" class="graph" transform="scale(1 1) rotate(0) translate(4 280)">
<title>dependencies</title>
<polygon fill="#ffffff" stroke="transparent" points="-4,4 -4,-280 500,-280 500,4 -4,4"/>
<text text-anchor="start" x="227.0091" y="-42.4" font-family="sans-serif" font-weight="bold" font-size="14.00" fill="#000000">Legend</text>
<polygon fill="#ffffb3" stroke="transparent" points="14,-10 14,-30 34,-30 34,-10 14,-10"/>
<text text-anchor="start" x="37.629" y="-15.4" font-family="sans-serif" font-size="14.00" fill="#000000"> &#160;Declarations</text>
<polygon fill="#8dd3c7" stroke="transparent" points="127,-10 127,-30 147,-30 147,-10 127,-10"/>
<text text-anchor="start" x="150.7251" y="-15.4" font-family="sans-serif" font-size="14.00" fill="#000000"> &#160;Module</text>
<polygon fill="#80b1d3" stroke="transparent" points="213,-10 213,-30 233,-30 233,-10 213,-10"/>
<text text-anchor="start" x="236.7812" y="-15.4" font-family="sans-serif" font-size="14.00" fill="#000000"> &#160;Bootstrap</text>
<polygon fill="#fdb462" stroke="transparent" points="310,-10 310,-30 330,-30 330,-10 310,-10"/>
<text text-anchor="start" x="333.6732" y="-15.4" font-family="sans-serif" font-size="14.00" fill="#000000"> &#160;Providers</text>
<polygon fill="#fb8072" stroke="transparent" points="406,-10 406,-30 426,-30 426,-10 406,-10"/>
<text text-anchor="start" x="429.7258" y="-15.4" font-family="sans-serif" font-size="14.00" fill="#000000"> &#160;Exports</text>
<g id="clust1" class="cluster">
<title>cluster_ShowHidePasswordModule</title>
<polygon fill="none" stroke="#000000" stroke-dasharray="1,5" points="10.5,-70 10.5,-268 485.5,-268 485.5,-70 10.5,-70"/>
</g>
<g id="clust2" class="cluster">
<title>cluster_ShowHidePasswordModule_declarations</title>
<polygon fill="none" stroke="#000000" points="267.5,-78 267.5,-130 477.5,-130 477.5,-78 267.5,-78"/>
</g>
<g id="clust4" class="cluster">
<title>cluster_ShowHidePasswordModule_imports</title>
<polygon fill="none" stroke="#000000" points="18.5,-78 18.5,-130 259.5,-130 259.5,-78 18.5,-78"/>
</g>
<g id="clust5" class="cluster">
<title>cluster_ShowHidePasswordModule_exports</title>
<polygon fill="none" stroke="#000000" points="88.5,-208 88.5,-260 302.5,-260 302.5,-208 88.5,-208"/>
</g>
<!-- ShowHidePasswordComponent -->
<g id="node1" class="node">
<title>ShowHidePasswordComponent</title>
<polygon fill="#ffffb3" stroke="#000000" points="469.587,-122 275.413,-122 275.413,-86 469.587,-86 469.587,-122"/>
<text text-anchor="middle" x="372.5" y="-99.8" font-family="Times,serif" font-size="14.00" fill="#000000">ShowHidePasswordComponent</text>
</g>
<!-- ShowHidePasswordModule -->
<g id="node2" class="node">
<title>ShowHidePasswordModule</title>
<polygon fill="#8dd3c7" stroke="#000000" points="281.8047,-187 278.8047,-191 257.8047,-191 254.8047,-187 109.1953,-187 109.1953,-151 281.8047,-151 281.8047,-187"/>
<text text-anchor="middle" x="195.5" y="-164.8" font-family="Times,serif" font-size="14.00" fill="#000000">ShowHidePasswordModule</text>
</g>
<!-- ShowHidePasswordComponent&#45;&gt;ShowHidePasswordModule -->
<g id="edge1" class="edge">
<title>ShowHidePasswordComponent&#45;&gt;ShowHidePasswordModule</title>
<path fill="none" stroke="#000000" d="M287.9729,-122.1061C287.9729,-141.3391 287.9729,-169 287.9729,-169 287.9729,-169 287.3661,-169 287.3661,-169"/>
<polygon fill="#000000" stroke="#000000" points="291.9055,-165.5002 281.9054,-169 291.9054,-172.5002 291.9055,-165.5002"/>
</g>
<!-- ShowHidePasswordComponent  -->
<g id="node5" class="node">
<title>ShowHidePasswordComponent </title>
<polygon fill="#fb8072" stroke="#000000" points="294.0874,-252 96.9126,-252 96.9126,-216 294.0874,-216 294.0874,-252"/>
<text text-anchor="middle" x="195.5" y="-229.8" font-family="Times,serif" font-size="14.00" fill="#000000">ShowHidePasswordComponent </text>
</g>
<!-- ShowHidePasswordModule&#45;&gt;ShowHidePasswordComponent  -->
<g id="edge4" class="edge">
<title>ShowHidePasswordModule&#45;&gt;ShowHidePasswordComponent </title>
<path fill="none" stroke="#000000" stroke-dasharray="5,2" d="M195.5,-187.1061C195.5,-187.1061 195.5,-205.991 195.5,-205.991"/>
<polygon fill="#000000" stroke="#000000" points="192.0001,-205.9909 195.5,-215.991 199.0001,-205.991 192.0001,-205.9909"/>
</g>
<!-- CommonModule -->
<g id="node3" class="node">
<title>CommonModule</title>
<polygon fill="#8dd3c7" stroke="#000000" points="251.1681,-122 248.1681,-126 227.1681,-126 224.1681,-122 139.8319,-122 139.8319,-86 251.1681,-86 251.1681,-122"/>
<text text-anchor="middle" x="195.5" y="-99.8" font-family="Times,serif" font-size="14.00" fill="#000000">CommonModule</text>
</g>
<!-- CommonModule&#45;&gt;ShowHidePasswordModule -->
<g id="edge2" class="edge">
<title>CommonModule&#45;&gt;ShowHidePasswordModule</title>
<path fill="none" stroke="#000000" d="M195.5,-122.1061C195.5,-122.1061 195.5,-140.991 195.5,-140.991"/>
<polygon fill="#000000" stroke="#000000" points="192.0001,-140.9909 195.5,-150.991 199.0001,-140.991 192.0001,-140.9909"/>
</g>
<!-- FormsModule -->
<g id="node4" class="node">
<title>FormsModule</title>
<polygon fill="#8dd3c7" stroke="#000000" points="122.3288,-122 119.3288,-126 98.3288,-126 95.3288,-122 26.6712,-122 26.6712,-86 122.3288,-86 122.3288,-122"/>
<text text-anchor="middle" x="74.5" y="-99.8" font-family="Times,serif" font-size="14.00" fill="#000000">FormsModule</text>
</g>
<!-- FormsModule&#45;&gt;ShowHidePasswordModule -->
<g id="edge3" class="edge">
<title>FormsModule&#45;&gt;ShowHidePasswordModule</title>
<path fill="none" stroke="#000000" d="M115.756,-122.1061C115.756,-122.1061 115.756,-140.991 115.756,-140.991"/>
<polygon fill="#000000" stroke="#000000" points="112.256,-140.9909 115.756,-150.991 119.256,-140.991 112.256,-140.9909"/>
</g>
</g>
</svg>
